<svg xmlns="http://www.w3.org/2000/svg" viewBox="0 0 64 64" fill="none">
  <rect width="64" height="64" rx="14" fill="#0A0A0A" />
  <path
    d="M31.916 15c-3.83 0-7.096 2.308-8.544 5.607a8.73 8.73 0 0 0-6.372 8.392c0 1.647.463 3.186 1.266 4.493a8.72 8.72 0 0 0 .703 11.841 8.73 8.73 0 0 0 10.048 4.486A8.73 8.73 0 0 0 32 51a8.73 8.73 0 0 0 7.308-3.96 8.73 8.73 0 0 0 10.339-4.2 8.73 8.73 0 0 0-.07-8.741 8.73 8.73 0 0 0-1.425-11.835A8.73 8.73 0 0 0 39.014 18a8.73 8.73 0 0 0-7.098-3Zm-.222 5.286c1.735 0 3.354.862 4.321 2.304l.519.774 4.169 2.408a4.54 4.54 0 0 1 2.258 3.928 4.54 4.54 0 0 1-.627 2.314l-.45.78 1.592 2.75a4.54 4.54 0 0 1-.028 4.608 4.54 4.54 0 0 1-3.954 2.275h-.898l-1.58 2.739A4.54 4.54 0 0 1 32 47.714a4.54 4.54 0 0 1-3.905-2.222l-.45-.78-4.183-2.416a4.54 4.54 0 0 1-1.584-6.23l.45-.78-1.578-2.727a4.54 4.54 0 0 1 1.661-6.2 4.54 4.54 0 0 1 2.265-.609h.902l1.568-2.716a4.54 4.54 0 0 1 3.948-2.248Z"
    fill="#fff"
  />
</svg>
